<svg width="24" height="24" viewBox="0 0 24 24" fill="none" xmlns="http://www.w3.org/2000/svg">
  <path d="M5 17.5 C7.5 16 10 15.5 12 15.5 C14.5 15.5 17 16 19.5 17.5" fill="none" stroke="#D97757" stroke-width="1.3" stroke-linecap="round"/>
  <path d="M6.2 17 C5.5 14 4.5 11.5 3.8 9.5" fill="none" stroke="#D97757" stroke-width="1.1" stroke-linecap="round"/>
  <path d="M8.3 16.2 C7.8 13 6.8 9.8 6.2 7" fill="none" stroke="#D97757" stroke-width="1.3" stroke-linecap="round"/>
  <path d="M10.5 15.7 C10.2 12.5 9.8 9 10 5.5" fill="none" stroke="#D97757" stroke-width="1.4" stroke-linecap="round"/>
  <path d="M13 15.6 C13.3 12.5 13.8 9 14.2 5.8" fill="none" stroke="#D97757" stroke-width="1.4" stroke-linecap="round"/>
  <path d="M15.5 16 C16.2 13 17 9.8 17.8 7.2" fill="none" stroke="#D97757" stroke-width="1.3" stroke-linecap="round"/>
  <path d="M18 17 C18.8 14 19.8 11.5 20.5 9.5" fill="none" stroke="#D97757" stroke-width="1.1" stroke-linecap="round"/>
</svg>
